<svg width="34" height="34" viewBox="0 0 34 34" fill="none" xmlns="http://www.w3.org/2000/svg">
<path d="M30.9453 25.8984H3.05469V3.1875H30.9453V25.8984Z" fill="#524798"/>
<path d="M17 3.1875H30.9453V25.8984H17V3.1875Z" fill="#38336B"/>
<path d="M16.0039 5.3125H17.9961V23.9062H16.0039V5.3125Z" fill="#F9F9F9"/>
<path d="M17 5.3125H17.9961V23.9062H17V5.3125Z" fill="#E4E4FF"/>
<path d="M2.05859 5.3125H4.05078V23.9062H2.05859V5.3125Z" fill="#F9F9F9"/>
<path d="M29.9492 5.3125H31.9414V23.9062H29.9492V5.3125Z" fill="#E4E4FF"/>
<path d="M5.71094 3.98438V7.13867C5.71094 8.69736 6.97452 9.96094 8.5332 9.96094C10.0919 9.96094 11.3555 8.69736 11.3555 7.13867V3.98438H5.71094Z" fill="#D0004F"/>
<path d="M1.0625 3.98438C0.512391 3.98438 0.0664062 4.43036 0.0664062 4.98047V7.13867C0.0664062 8.69736 1.32998 9.96094 2.88867 9.96094C4.44736 9.96094 5.71094 8.69736 5.71094 7.13867V3.98438H1.0625Z" fill="#FFB454"/>
<path d="M11.3555 3.98438V7.13867C11.3555 8.69736 12.619 9.96094 14.1777 9.96094C15.7364 9.96094 17 8.69736 17 7.13867V3.98438H11.3555Z" fill="#FFB454"/>
<path d="M17 3.98438V7.13867C17 8.69736 18.2636 9.96094 19.8223 9.96094C21.381 9.96094 22.6445 8.69736 22.6445 7.13867V3.98438H17Z" fill="#A2003D"/>
<path d="M33.9336 4.98047C33.9336 4.43036 33.4876 3.98438 32.9375 3.98438H28.2891V7.13867C28.2891 8.69736 29.5526 9.96094 31.1113 9.96094C32.67 9.96094 33.9336 8.69736 33.9336 7.13867V4.98047Z" fill="#A2003D"/>
<path d="M22.6445 3.98438V7.13867C22.6445 8.69736 23.9081 9.96094 25.4668 9.96094C27.0255 9.96094 28.2891 8.69736 28.2891 7.13867V3.98438H22.6445Z" fill="#FF8659"/>
<path d="M16.9997 2.65625L33.9329 4.98047C33.9329 4.80296 33.8858 4.62559 33.7913 4.46801L29.811 0.307527C29.623 0.111098 29.3631 0 29.0912 0H4.90815C4.63635 0 4.3763 0.111098 4.18837 0.307527L0.208051 4.46801C0.113488 4.62559 0.0664062 4.80296 0.0664062 4.98047H5.71061L16.9997 2.65625Z" fill="#FFE196"/>
<path d="M12.8828 0L11.3555 4.98047H17V0H12.8828Z" fill="#FFE196"/>
<path d="M8.76562 0L5.71094 4.98047H11.3555L12.8828 0H8.76562Z" fill="#FF6378"/>
<path d="M33.9333 4.98047C33.9333 4.80296 33.8862 4.62559 33.7916 4.46801L29.8113 0.307527C29.6234 0.111098 29.3634 0 29.0915 0H25.2344L28.2891 4.98047H33.9333Z" fill="#D0004F"/>
<path d="M25.2344 0H21.1172L22.6445 4.98047H28.2891L25.2344 0Z" fill="#FFB454"/>
<path d="M17 0V4.98047H22.6445L21.1172 0H17Z" fill="#D0004F"/>
<path d="M26.9609 23.9062H20.9844C20.4343 23.9062 19.9883 23.4603 19.9883 22.9102V20.5859C19.9883 18.389 21.7757 16.6016 23.9727 16.6016C26.1696 16.6016 27.957 18.389 27.957 20.5859V22.9102C27.957 23.4603 27.511 23.9062 26.9609 23.9062Z" fill="#45F6FF"/>
<path d="M13.0156 23.9062H7.03906C6.48895 23.9062 6.04297 23.4603 6.04297 22.9102V20.5859C6.04297 18.389 7.83036 16.6016 10.0273 16.6016C12.2243 16.6016 14.0117 18.389 14.0117 20.5859V22.9102C14.0117 23.4603 13.5657 23.9062 13.0156 23.9062Z" fill="#F9F9F9"/>
<path d="M23.9727 16.6016V23.9062H26.9609C27.511 23.9062 27.957 23.4603 27.957 22.9102V20.5859C27.957 18.389 26.1696 16.6016 23.9727 16.6016Z" fill="#2EBEEF"/>
<path d="M14.0117 20.5859V22.9102C14.0117 23.4603 13.5657 23.9062 13.0156 23.9062H10.0273V16.6016C12.2243 16.6016 14.0117 18.389 14.0117 20.5859Z" fill="#E4E4FF"/>
<path d="M23.9727 17.9297C22.3249 17.9297 20.9844 16.5891 20.9844 14.9414C20.9844 13.2937 22.3249 11.9531 23.9727 11.9531C25.6204 11.9531 26.9609 13.2937 26.9609 14.9414C26.9609 16.5891 25.6204 17.9297 23.9727 17.9297Z" fill="#FFDCAA"/>
<path d="M10.0273 17.9297C8.37961 17.9297 7.03906 16.5891 7.03906 14.9414C7.03906 13.2937 8.37961 11.9531 10.0273 11.9531C11.6751 11.9531 13.0156 13.2937 13.0156 14.9414C13.0156 16.5891 11.6751 17.9297 10.0273 17.9297Z" fill="#FFDCAA"/>
<path d="M13.0156 14.9414C13.0156 16.5891 11.6751 17.9297 10.0273 17.9297V11.9531C11.6751 11.9531 13.0156 13.2937 13.0156 14.9414Z" fill="#FFC687"/>
<path d="M23.9727 11.9531V17.9297C25.6204 17.9297 26.9609 16.5891 26.9609 14.9414C26.9609 13.2937 25.6204 11.9531 23.9727 11.9531Z" fill="#FFC687"/>
<path d="M33.0039 34H0.996094C0.445984 34 0 33.554 0 33.0039V22.9102C0 22.36 0.445984 21.9141 0.996094 21.9141H33.0039C33.554 21.9141 34 22.36 34 22.9102V33.0039C34 33.554 33.554 34 33.0039 34Z" fill="#FF6378"/>
<path d="M33.0039 21.9141H17V34H33.0039C33.554 34 34 33.554 34 33.0039V22.9102C34 22.36 33.554 21.9141 33.0039 21.9141Z" fill="#D0004F"/>
<path d="M23.6406 34H10.3594C9.80927 34 9.36328 33.554 9.36328 33.0039V27.0273C9.36328 26.4772 9.80927 26.0312 10.3594 26.0312H23.6406C24.1907 26.0312 24.6367 26.4772 24.6367 27.0273V33.0039C24.6367 33.554 24.1907 34 23.6406 34Z" fill="#F9F9F9"/>
<path d="M23.6406 26.0312H17V34H23.6406C24.1907 34 24.6367 33.554 24.6367 33.0039V27.0273C24.6367 26.4772 24.1907 26.0312 23.6406 26.0312Z" fill="#E4E4FF"/>
</svg>
