<svg width="25" height="38" viewBox="0 0 25 38" fill="none" xmlns="http://www.w3.org/2000/svg">
<path d="M10.8743 18.5664H1.96724C1.46104 18.5664 0.975564 18.7675 0.617623 19.1254C0.259683 19.4834 0.0585938 19.9688 0.0585938 20.4751V22.3837H12.7829V20.4751C12.7829 19.9688 12.5818 19.4834 12.2239 19.1254C11.8659 18.7675 11.3805 18.5664 10.8743 18.5664Z" fill="#E0A684"/>
<path d="M23.9826 1.58579L21.0545 18.5688V22.3861H12.7837V20.4774C12.7835 19.9713 12.5824 19.4859 12.2245 19.1279C11.8666 18.77 11.3812 18.5689 10.875 18.5688H18.5096L21.5109 1.15952C21.5388 0.99708 21.5983 0.841718 21.6862 0.702316C21.7742 0.562914 21.8887 0.442208 22.0233 0.347097C22.1579 0.251987 22.3099 0.184338 22.4706 0.148019C22.6314 0.1117 22.7977 0.107422 22.9602 0.135431C23.1226 0.16344 23.2779 0.223186 23.4172 0.311253C23.5565 0.39932 23.677 0.51398 23.772 0.648679C23.867 0.783378 23.9344 0.935473 23.9706 1.09627C24.0067 1.25706 24.0108 1.42341 23.9826 1.58579Z" fill="#AD693D"/>
<path d="M22.7482 0.121094C22.4525 0.121043 22.1663 0.225484 21.9402 0.415967C21.7141 0.606451 21.5625 0.870721 21.5123 1.1621L18.511 18.5714H7.69531L10.6943 1.17721C10.7452 0.881704 10.8989 0.613691 11.1282 0.420462C11.3576 0.227234 11.6478 0.121208 11.9476 0.121094H22.7482Z" fill="#DC9265"/>
<path d="M1.96724 37.0158H0.0585938V22.3828H3.87589L1.96724 37.0158Z" fill="#BC8D5D"/>
<path d="M12.7836 37.0158H10.875V22.3828H14.6923L12.7836 37.0158Z" fill="#BC8D5D"/>
<path d="M19.143 37.0158H21.0517V22.3828H17.2344L19.143 37.0158Z" fill="#BC8D5D"/>
</svg>