<svg width="47" height="47" viewBox="0 0 47 47" fill="none" xmlns="http://www.w3.org/2000/svg">
<path d="M39.6562 26.4375V14.6875C39.6562 13.9084 39.3468 13.1613 38.7959 12.6104C38.245 12.0595 37.4978 11.75 36.7188 11.75H10.2812C9.50218 11.75 8.75501 12.0595 8.20412 12.6104C7.65324 13.1613 7.34375 13.9084 7.34375 14.6875V26.4375H39.6562Z" fill="#DE9400"/>
<path d="M8.03463 30.8438C7.40863 30.8438 6.799 30.6438 6.29464 30.273C5.79028 29.9022 5.41756 29.3799 5.23084 28.7824L2.31849 19.4629C2.24202 19.2182 2.20312 18.9633 2.20312 18.707V18.6907C2.20312 18.0185 2.47014 17.3739 2.94543 16.8986C3.42073 16.4233 4.06536 16.1563 4.73753 16.1563C5.27952 16.1563 5.80724 16.33 6.24322 16.652C6.6792 16.974 7.00046 17.4273 7.15985 17.9453L9.54688 25.7031H37.4531L39.8401 17.9453C39.9995 17.4273 40.3208 16.974 40.7568 16.652C41.1928 16.33 41.7205 16.1563 42.2625 16.1563C42.5953 16.1562 42.9249 16.2218 43.2323 16.3492C43.5398 16.4765 43.8192 16.6632 44.0546 16.8986C44.2899 17.1339 44.4766 17.4133 44.604 17.7208C44.7313 18.0283 44.7969 18.3578 44.7969 18.6907V18.707C44.7969 18.9633 44.758 19.2182 44.6815 19.4629L41.7692 28.7824C41.5824 29.3799 41.2097 29.9022 40.7054 30.273C40.201 30.6438 39.5914 30.8438 38.9654 30.8438H8.03463Z" fill="#FAC623"/>
<path d="M35.25 22.0312H25.7031C25.1188 22.0313 24.5584 22.2634 24.1453 22.6765C23.7321 23.0897 23.5 23.6501 23.5 24.2344V25.7031H37.4531V24.2344C37.4531 23.6501 37.221 23.0897 36.8078 22.6765C36.3947 22.2634 35.8343 22.0313 35.25 22.0312Z" fill="#F6BB00"/>
<path d="M21.2969 22.0312H11.75C11.1657 22.0313 10.6053 22.2634 10.1922 22.6765C9.77899 23.0897 9.54688 23.6501 9.54688 24.2344V25.7031H23.5V24.2344C23.5 23.6501 23.2679 23.0897 22.8547 22.6765C22.4416 22.2634 21.8812 22.0313 21.2969 22.0312Z" fill="#EDA600"/>
<path d="M34.5156 16.1562H33.0469V17.625H34.5156V16.1562Z" fill="#CF8300"/>
<path d="M29.375 16.1562H27.9062V17.625H29.375V16.1562Z" fill="#CF8300"/>
<path d="M24.2344 16.1562H22.7656V17.625H24.2344V16.1562Z" fill="#CF8300"/>
<path d="M19.0938 16.1562H17.625V17.625H19.0938V16.1562Z" fill="#CF8300"/>
<path d="M13.9531 16.1562H12.4844V17.625H13.9531V16.1562Z" fill="#CF8300"/>
<path d="M38.1875 30.8438L38.9219 35.25H37.4531L34.5156 30.8438H38.1875Z" fill="#B1712C"/>
<path d="M8.8125 30.8438L8.07812 35.25H9.54688L12.4844 30.8438H8.8125Z" fill="#B1712C"/>
</svg>
