<svg width="33" height="33" viewBox="0 0 33 33" fill="none" xmlns="http://www.w3.org/2000/svg">
<path d="M6.76953 8.24805V19.5918C6.76953 20.1255 7.20266 20.5586 7.73633 20.5586H25.2676C25.8012 20.5586 26.2344 20.1255 26.2344 19.5918V8.24805C26.2344 7.71438 25.8012 7.28125 25.2676 7.28125H7.73633C7.20266 7.28125 6.76953 7.71438 6.76953 8.24805Z" fill="#F4F4F6"/>
<path d="M6.76758 8.24805V19.5918C6.76758 20.1255 7.2007 20.5586 7.73438 20.5586H16.5V7.28125H7.73438C7.2007 7.28125 6.76758 7.71438 6.76758 8.24805Z" fill="#E4E4FF"/>
<path d="M10.8945 20.623V23.7168C10.8945 24.2505 11.3277 24.6836 11.8613 24.6836H21.1426C21.6762 24.6836 22.1094 24.2505 22.1094 23.7168V20.623C22.1094 17.5312 19.5938 15.0156 16.502 15.0156C13.4101 15.0156 10.8945 17.5312 10.8945 20.623Z" fill="#FF5E90"/>
<path d="M10.8926 20.623V23.7168C10.8926 24.2505 11.3257 24.6836 11.8594 24.6836H16.5V15.0156C13.4082 15.0156 10.8926 17.5312 10.8926 20.623Z" fill="#D01273"/>
<path d="M16.502 16.9492C14.8289 16.9492 13.4727 15.593 13.4727 13.9199C13.4727 12.2469 14.8289 10.8906 16.502 10.8906C18.175 10.8906 19.5312 12.2469 19.5312 13.9199C19.5312 15.593 18.175 16.9492 16.502 16.9492Z" fill="#FFCBBC"/>
<path d="M13.4707 13.9199C13.4707 15.5905 14.8294 16.9492 16.5 16.9492V10.8906C14.8294 10.8906 13.4707 12.2493 13.4707 13.9199Z" fill="#F9A58B"/>
<path d="M25.2676 20.5586C25.8015 20.5586 26.2344 20.1257 26.2344 19.5918V8.24805C26.2344 7.71412 25.8015 7.28125 25.2676 7.28125C24.7336 7.28125 24.3008 7.71412 24.3008 8.24805V19.5918C24.3008 20.1257 24.7336 20.5586 25.2676 20.5586Z" fill="#E4E4FF"/>
<path d="M7.73633 20.5586C8.27026 20.5586 8.70312 20.1257 8.70312 19.5918V8.24805C8.70312 7.71412 8.27026 7.28125 7.73633 7.28125C7.2024 7.28125 6.76953 7.71412 6.76953 8.24805V19.5918C6.76953 20.1257 7.2024 20.5586 7.73633 20.5586Z" fill="#B4B9F1"/>
<path d="M5.22266 2.90039V8.25C5.22266 8.78367 5.65578 9.2168 6.18945 9.2168H26.8145C27.3481 9.2168 27.7812 8.78367 27.7812 8.25V2.90039C27.7812 1.30131 26.4799 0 24.8809 0H8.12305C6.52396 0 5.22266 1.30131 5.22266 2.90039Z" fill="#ACCEFF"/>
<path d="M5.2207 2.90039V8.25C5.2207 8.78367 5.65383 9.2168 6.1875 9.2168H16.5V0H8.12109C6.52201 0 5.2207 1.30131 5.2207 2.90039Z" fill="#989DEC"/>
<path d="M12.4414 4.63867C12.4414 5.17234 12.8745 5.60547 13.4082 5.60547H19.5957C20.1294 5.60547 20.5625 5.17234 20.5625 4.63867C20.5625 4.105 20.1294 3.67188 19.5957 3.67188H13.4082C12.8745 3.67188 12.4414 4.105 12.4414 4.63867Z" fill="#FFDD54"/>
<path d="M12.4395 4.63867C12.4395 5.17234 12.8726 5.60547 13.4062 5.60547H16.5V3.67188H13.4062C12.8726 3.67188 12.4395 4.105 12.4395 4.63867Z" fill="#FFB454"/>
<path d="M8.31641 19.5918V32.0312C8.31641 32.5649 8.74953 32.998 9.2832 32.998H23.7207C24.2544 32.998 24.6875 32.5649 24.6875 32.0312V19.5918C24.6875 19.0581 24.2544 18.625 23.7207 18.625H9.2832C8.74953 18.625 8.31641 19.0581 8.31641 19.5918Z" fill="#ACCEFF"/>
<path d="M8.31445 19.5918V32.0312C8.31445 32.5649 8.74758 32.998 9.28125 32.998H16.5V18.625H9.28125C8.74758 18.625 8.31445 19.0581 8.31445 19.5918Z" fill="#989DEC"/>
<path d="M5.22266 19.5918C5.22266 20.1255 5.65578 20.5586 6.18945 20.5586H26.8145C27.3481 20.5586 27.7812 20.1255 27.7812 19.5918C27.7812 19.0581 27.3481 18.625 26.8145 18.625H6.18945C5.65578 18.625 5.22266 19.0581 5.22266 19.5918Z" fill="#989DEC"/>
<path d="M5.2207 19.5918C5.2207 20.1255 5.65383 20.5586 6.1875 20.5586H16.5V18.625H6.1875C5.65383 18.625 5.2207 19.0581 5.2207 19.5918Z" fill="#5E69E2"/>
<path d="M12.4414 23.7168V27.8418C12.4414 28.3755 12.8745 28.8086 13.4082 28.8086H19.5957C20.1294 28.8086 20.5625 28.3755 20.5625 27.8418V23.7168C20.5625 23.1831 20.1294 22.75 19.5957 22.75H13.4082C12.8745 22.75 12.4414 23.1831 12.4414 23.7168Z" fill="#FFDD54"/>
<path d="M12.4395 23.7168V27.8418C12.4395 28.3755 12.8726 28.8086 13.4062 28.8086H16.5V22.75H13.4062C12.8726 22.75 12.4395 23.1831 12.4395 23.7168Z" fill="#FFB454"/>
<path d="M0.0664062 32.0332C0.0664062 32.5669 0.499531 33 1.0332 33H31.9707C32.5044 33 32.9375 32.5669 32.9375 32.0332C32.9375 31.4995 32.5044 31.0664 31.9707 31.0664H1.0332C0.499531 31.0664 0.0664062 31.4995 0.0664062 32.0332Z" fill="#8078BE"/>
<path d="M0.00195312 32.0332C0.00195312 32.5669 0.435078 33 0.96875 33H16.4375V31.0664H0.96875C0.435078 31.0664 0.00195312 31.4995 0.00195312 32.0332Z" fill="#524798"/>
</svg>
