<svg width="39" height="26" viewBox="0 0 39 26" fill="none" xmlns="http://www.w3.org/2000/svg">
<path d="M5.30859 7.85554V24.1649C5.30859 24.8178 5.83784 25.3471 6.49074 25.3471C7.11499 25.3471 7.6317 24.8617 7.67059 24.2386L8.69339 7.85547H5.30859V7.85554Z" fill="#596C76"/>
<path d="M29.3047 7.85547L30.3275 24.2386C30.3664 24.8616 30.8831 25.3471 31.5073 25.3471C32.1602 25.3471 32.6895 24.8178 32.6895 24.1649V7.85547H29.3047Z" fill="#596C76"/>
<path d="M2.10156 3.48828V6.47527C2.10156 7.23534 2.71772 7.8515 3.47779 7.8515H34.5199C35.2799 7.8515 35.8961 7.23534 35.8961 6.47527V3.48828H2.10156Z" fill="#AA6A51"/>
<path d="M37.0823 0H0.917486C0.410798 0 0 0.410798 0 0.917485V2.57277C0 3.07946 0.410798 3.49026 0.917486 3.49026H37.0823C37.589 3.49026 37.9997 3.07946 37.9997 2.57277V0.917485C37.9997 0.410798 37.589 0 37.0823 0Z" fill="#BC7C63"/>
<path d="M37.085 0H34.0508C34.5575 0 34.9683 0.410798 34.9683 0.917485V2.57277C34.9683 3.07946 34.5575 3.49026 34.0508 3.49026H37.085C37.5917 3.49026 38.0025 3.07946 38.0025 2.57277V0.917485C38.0025 0.410798 37.5917 0 37.085 0Z" fill="#AA6A51"/>
<path d="M32.8645 3.48828V6.47527C32.8645 7.23534 32.2484 7.8515 31.4883 7.8515H34.5225C35.2826 7.8515 35.8988 7.23534 35.8988 6.47527V3.48828H32.8645Z" fill="#935B44"/>
<path d="M5.3125 10.0189H8.56192L8.69722 7.85156H5.3125V10.0189Z" fill="#465A61"/>
<path d="M29.4478 10.0189H32.6972V7.85156H29.3125L29.4478 10.0189Z" fill="#465A61"/>
</svg>